<svg width="20" height="20" viewBox="0 0 20 20" fill="none" xmlns="http://www.w3.org/2000/svg">
<path d="M1 11.125H6.625M10 14.5V5.5H13.375C13.9717 5.5 14.544 5.73705 14.966 6.15901C15.3879 6.58097 15.625 7.15326 15.625 7.75V8.875C15.625 9.47174 15.3879 10.044 14.966 10.466C14.544 10.8879 13.9717 11.125 13.375 11.125H10M19 5.5V14.5M6.625 14.5V8.3125C6.625 7.56658 6.32868 6.85121 5.80124 6.32376C5.27379 5.79632 4.55842 5.5 3.8125 5.5C3.06658 5.5 2.35121 5.79632 1.82376 6.32376C1.29632 6.85121 1 7.56658 1 8.3125V14.5" stroke="#0C0B0E" stroke-width="1.35" stroke-linecap="round" stroke-linejoin="round"/>
</svg>
