<svg width="20" height="20" viewBox="0 0 20 20" fill="none" xmlns="http://www.w3.org/2000/svg">
<path d="M1.66675 9.99996C1.66675 6.07163 1.66675 4.10746 2.88675 2.88663C4.10841 1.66663 6.07175 1.66663 10.0001 1.66663C13.9284 1.66663 15.8926 1.66663 17.1126 2.88663C18.3334 4.10829 18.3334 6.07163 18.3334 9.99996C18.3334 13.9283 18.3334 15.8925 17.1126 17.1125C15.8934 18.3333 13.9284 18.3333 10.0001 18.3333C6.07175 18.3333 4.10758 18.3333 2.88675 17.1125C1.66675 15.8933 1.66675 13.9283 1.66675 9.99996Z" stroke="#0C0B0E" stroke-width="1.25"/>
<path d="M14.1668 12.4999H10.0002M5.8335 8.33325L6.0285 8.49575C7.09683 9.38575 7.631 9.83075 7.631 10.4166C7.631 11.0024 7.09766 11.4474 6.0285 12.3374L5.8335 12.4999" stroke="#0C0B0E" stroke-width="1.25" stroke-linecap="round"/>
</svg>
