<svg width="20" height="20" viewBox="0 0 20 20" fill="none" xmlns="http://www.w3.org/2000/svg">
<path d="M8.82177 12.2876C8.82019 12.43 8.75797 12.5579 8.64957 12.6697L8.6485 12.6708L8.64849 12.6708C8.5343 12.7849 8.40031 12.8468 8.24945 12.8422L8.24896 12.8422C8.10384 12.8372 7.97704 12.7809 7.87264 12.6772L7.87238 12.677L6.1444 10.9481C6.14439 10.9481 6.14439 10.9481 6.14438 10.9481C5.98347 10.7872 5.9 10.5948 5.9 10.3752C5.9 10.1555 5.98347 9.96316 6.14438 9.80224C6.14439 9.80224 6.14439 9.80223 6.1444 9.80223L7.87238 8.07336L7.87261 8.07312C7.98551 7.96091 8.11601 7.89777 8.26202 7.90006C8.40664 7.90233 8.53592 7.96678 8.64827 8.07846L8.65002 8.08019L8.65 8.08021C8.75955 8.19458 8.81823 8.32749 8.81373 8.47596L8.81372 8.47647C8.80863 8.62024 8.75206 8.74585 8.64849 8.84943L7.12275 10.3752L8.64849 11.9009L8.6487 11.9011C8.76048 12.0136 8.82399 12.143 8.82177 12.2876ZM8.82177 12.2876C8.82177 12.2877 8.82177 12.2878 8.82177 12.2879L8.72178 12.2863L8.82177 12.2873C8.82177 12.2874 8.82177 12.2875 8.82177 12.2876ZM11.9711 8.46263C11.9689 8.60722 12.0324 8.73673 12.1442 8.84921L12.1444 8.84943L13.6701 10.3752L12.1444 11.9009C12.0408 12.0045 11.9843 12.1301 11.9792 12.2738L11.9792 12.2744C11.9747 12.4228 12.0333 12.5557 12.1429 12.6701L12.1429 12.6701L12.1446 12.6719C12.257 12.7835 12.3863 12.848 12.5309 12.8503C12.6769 12.8526 12.8074 12.7894 12.9203 12.6772L12.9205 12.677L14.6485 10.9481C14.6485 10.9481 14.6485 10.9481 14.6485 10.9481C14.8094 10.7872 14.8929 10.5948 14.8929 10.3752C14.8929 10.1555 14.8094 9.96316 14.6485 9.80224C14.6485 9.80224 14.6485 9.80223 14.6485 9.80223L12.9205 8.07335L12.9202 8.0731C12.8159 7.96946 12.6893 7.91339 12.5446 7.90899M11.9711 8.46263C11.9727 8.32035 12.0349 8.19225 12.1431 8.07998L12.1446 8.07844L12.1446 8.07846C12.259 7.96475 12.3934 7.90379 12.5446 7.90899M11.9711 8.46263C11.9711 8.46257 11.9711 8.46251 11.9711 8.46245L12.0711 8.46405L11.9711 8.46298C11.9711 8.46286 11.9711 8.46275 11.9711 8.46263ZM12.5446 7.90899C12.5447 7.90899 12.5447 7.90899 12.5448 7.909L12.5413 8.00894L12.5443 7.90898C12.5444 7.90898 12.5445 7.90899 12.5446 7.90899Z" fill="#0C0B0E" stroke="#0C0B0E" stroke-width="0.2"/>
<path d="M2 10.3333C2 6.405 2 4.44083 3.22 3.22C4.44167 2 6.405 2 10.3333 2C14.2617 2 16.2258 2 17.4458 3.22C18.6667 4.44167 18.6667 6.405 18.6667 10.3333C18.6667 14.2617 18.6667 16.2258 17.4458 17.4458C16.2267 18.6667 14.2617 18.6667 10.3333 18.6667C6.405 18.6667 4.44083 18.6667 3.22 17.4458C2 16.2267 2 14.2617 2 10.3333Z" stroke="#0C0B0E" stroke-width="1.25"/>
</svg>
