<svg width="20" height="20" viewBox="0 0 20 20" fill="none" xmlns="http://www.w3.org/2000/svg">
<path d="M12.25 4.9375C11.9516 4.9375 11.6655 5.05603 11.4545 5.267C11.2435 5.47798 11.125 5.76413 11.125 6.0625C11.125 6.36087 11.2435 6.64702 11.4545 6.858C11.6655 7.06897 11.9516 7.1875 12.25 7.1875C12.5484 7.1875 12.8345 7.06897 13.0455 6.858C13.2565 6.64702 13.375 6.36087 13.375 6.0625C13.375 5.76413 13.2565 5.47798 13.0455 5.267C12.8345 5.05603 12.5484 4.9375 12.25 4.9375ZM6.625 6.0625C6.625 5.76413 6.74353 5.47798 6.9545 5.267C7.16548 5.05603 7.45163 4.9375 7.75 4.9375C8.04837 4.9375 8.33452 5.05603 8.5455 5.267C8.75647 5.47798 8.875 5.76413 8.875 6.0625C8.875 6.36087 8.75647 6.64702 8.5455 6.858C8.33452 7.06897 8.04837 7.1875 7.75 7.1875C7.45163 7.1875 7.16548 7.06897 6.9545 6.858C6.74353 6.64702 6.625 6.36087 6.625 6.0625ZM10.5625 1.5625C10.5625 1.41332 10.5032 1.27024 10.3977 1.16475C10.2923 1.05926 10.1492 1 10 1C9.85082 1 9.70774 1.05926 9.60225 1.16475C9.49676 1.27024 9.4375 1.41332 9.4375 1.5625V2.125H6.0625C5.61495 2.125 5.18572 2.30279 4.86926 2.61926C4.55279 2.93572 4.375 3.36495 4.375 3.8125V8.3125C4.375 8.76005 4.55279 9.18928 4.86926 9.50574C5.18572 9.82221 5.61495 10 6.0625 10H13.9375C14.3851 10 14.8143 9.82221 15.1307 9.50574C15.4472 9.18928 15.625 8.76005 15.625 8.3125V3.8125C15.625 3.36495 15.4472 2.93572 15.1307 2.61926C14.8143 2.30279 14.3851 2.125 13.9375 2.125H10.5625V1.5625ZM6.0625 3.25H13.9375C14.0867 3.25 14.2298 3.30926 14.3352 3.41475C14.4407 3.52024 14.5 3.66332 14.5 3.8125V8.3125C14.5 8.46168 14.4407 8.60476 14.3352 8.71025C14.2298 8.81574 14.0867 8.875 13.9375 8.875H6.0625C5.91332 8.875 5.77024 8.81574 5.66475 8.71025C5.55926 8.60476 5.5 8.46168 5.5 8.3125V3.8125C5.5 3.66332 5.55926 3.52024 5.66475 3.41475C5.77024 3.30926 5.91332 3.25 6.0625 3.25ZM10.2812 18.9977C13.2242 18.9606 15.0006 18.3284 16.0435 17.3778C17.0279 16.4778 17.2686 15.3786 17.3069 14.5022H17.3125V13.726C17.3122 13.1861 17.0975 12.6685 16.7157 12.2869C16.3339 11.9053 15.8161 11.6909 15.2762 11.6909H11.6875V11.6875H8.3125V11.6909H4.72375C3.59875 11.6909 2.6875 12.6021 2.6875 13.7271V14.5022H2.69313C2.73138 15.3798 2.97212 16.4789 3.9565 17.3766C4.99937 18.3284 6.77575 18.9606 9.71875 18.9977V19H10.2812V18.9977ZM4.72375 12.8159H15.2762C15.5179 12.8159 15.7497 12.9119 15.9206 13.0828C16.0915 13.2537 16.1875 13.4854 16.1875 13.7271V14.2188C16.1875 14.995 16.0401 15.8568 15.2852 16.5464C14.5112 17.2518 12.9925 17.875 10 17.875C7.0075 17.875 5.48875 17.2518 4.71475 16.5464C3.961 15.8568 3.8125 14.9939 3.8125 14.2188V13.726C3.8128 13.4845 3.90894 13.253 4.0798 13.0824C4.25066 12.9117 4.48227 12.8159 4.72375 12.8159Z" fill="#0C0B0E"/>
</svg>
