<svg width="20" height="20" viewBox="0 0 20 20" fill="none" xmlns="http://www.w3.org/2000/svg">
<path d="M13 14.95H12.95V15V16C12.95 16.252 12.8499 16.4936 12.6718 16.6718C12.4936 16.8499 12.252 16.95 12 16.95H4C3.74804 16.95 3.50641 16.8499 3.32825 16.6718C3.15009 16.4936 3.05 16.252 3.05 16V8C3.05 7.74804 3.15009 7.50641 3.32825 7.32825C3.50641 7.15009 3.74804 7.05 4 7.05H5H5.05V7V6V5.95H5H4C3.45631 5.95 2.93488 6.16598 2.55043 6.55043C2.16598 6.93488 1.95 7.45631 1.95 8V16C1.95 16.5437 2.16598 17.0651 2.55043 17.4496C2.93488 17.834 3.45631 18.05 4 18.05H12C12.5437 18.05 13.0651 17.834 13.4496 17.4496C13.834 17.0651 14.05 16.5437 14.05 16V15V14.95H14H13ZM6.55043 2.55043C6.16598 2.93488 5.95 3.45631 5.95 4V12C5.95 12.5437 6.16598 13.0651 6.55043 13.4496C6.93488 13.834 7.45631 14.05 8 14.05H16C16.5437 14.05 17.0651 13.834 17.4496 13.4496C17.834 13.0651 18.05 12.5437 18.05 12V4C18.05 3.45631 17.834 2.93488 17.4496 2.55043C17.0651 2.16598 16.5437 1.95 16 1.95H8C7.45631 1.95 6.93488 2.16598 6.55043 2.55043ZM7.32825 3.32825C7.50641 3.15009 7.74804 3.05 8 3.05H16C16.252 3.05 16.4936 3.15009 16.6718 3.32825C16.8499 3.50641 16.95 3.74804 16.95 4V12C16.95 12.252 16.8499 12.4936 16.6718 12.6718C16.4936 12.8499 16.252 12.95 16 12.95H8C7.74804 12.95 7.50641 12.8499 7.32825 12.6718C7.15009 12.4936 7.05 12.252 7.05 12V4C7.05 3.74804 7.15009 3.50641 7.32825 3.32825Z" fill="#0C0B0E" stroke="#0C0B0E" stroke-width="0.1"/>
</svg>
