<svg width="20" height="20" viewBox="0 0 20 20" fill="none" xmlns="http://www.w3.org/2000/svg">
<path d="M16.3663 7.8103C16.3663 7.8103 15.8967 13.6354 15.6242 16.0891C15.4945 17.2611 14.7706 17.9478 13.5848 17.9694C11.3283 18.0101 9.06916 18.0127 6.8135 17.9651C5.6727 17.9417 4.96089 17.2464 4.83375 16.0952C4.55958 13.6198 4.09253 7.8103 4.09253 7.8103" stroke="#0C0B0E" stroke-width="1.29735" stroke-linecap="round" stroke-linejoin="round"/>
<path d="M17.5627 5.01802H2.89575" stroke="#0C0B0E" stroke-width="1.29735" stroke-linecap="round" stroke-linejoin="round"/>
<path d="M14.7365 5.018C14.0576 5.018 13.4729 4.53798 13.3397 3.87287L13.1295 2.82116C12.9998 2.33595 12.5604 2.00037 12.0597 2.00037H8.39854C7.89777 2.00037 7.4584 2.33595 7.32866 2.82116L7.11849 3.87287C6.9853 4.53798 6.40063 5.018 5.72168 5.018" stroke="#0C0B0E" stroke-width="1.29735" stroke-linecap="round" stroke-linejoin="round"/>
</svg>
