<svg width="20" height="20" viewBox="0 0 20 20" fill="none" xmlns="http://www.w3.org/2000/svg">
<path d="M8.46688 11.9724C7.98771 11.4941 7.69604 10.8441 7.69604 10.1149C7.69604 8.65406 8.87271 7.47656 10.3327 7.47656C11.0552 7.47656 11.7202 7.76906 12.1911 8.2474" stroke="#0C0B0E" stroke-width="1.25" stroke-linecap="round" stroke-linejoin="round"/>
<path d="M12.9206 10.5825C12.7272 11.6575 11.8806 12.5059 10.8064 12.7009" stroke="#0C0B0E" stroke-width="1.25" stroke-linecap="round" stroke-linejoin="round"/>
<path d="M5.87869 14.5604C4.55618 13.522 3.43618 12.0054 2.62451 10.1145C3.44451 8.21536 4.57202 6.69036 5.90285 5.64369C7.22535 4.59702 8.75119 4.02869 10.3329 4.02869C11.9237 4.02869 13.4487 4.60535 14.7795 5.65952" stroke="#0C0B0E" stroke-width="1.25" stroke-linecap="round" stroke-linejoin="round"/>
<path d="M16.5396 7.49243C17.1129 8.2541 17.6171 9.13327 18.0413 10.1141C16.4021 13.9116 13.5054 16.1991 10.3329 16.1991C9.61374 16.1991 8.90457 16.0824 8.2229 15.8549" stroke="#0C0B0E" stroke-width="1.25" stroke-linecap="round" stroke-linejoin="round"/>
<path d="M16.9055 3.54138L3.7605 16.6864" stroke="#0C0B0E" stroke-width="1.25" stroke-linecap="round" stroke-linejoin="round"/>
</svg>
