<svg width="20" height="20" viewBox="0 0 20 20" fill="none" xmlns="http://www.w3.org/2000/svg">
<path d="M8.49259 14.4172H2.80444" stroke="#0C0B0E" stroke-width="1.35417" stroke-linecap="round" stroke-linejoin="round"/>
<path d="M11.0295 5.66699H16.7177" stroke="#0C0B0E" stroke-width="1.35417" stroke-linecap="round" stroke-linejoin="round"/>
<path fill-rule="evenodd" clip-rule="evenodd" d="M7.04438 5.61815C7.04438 4.44846 6.08909 3.5 4.91098 3.5C3.73287 3.5 2.77759 4.44846 2.77759 5.61815C2.77759 6.78784 3.73287 7.73629 4.91098 7.73629C6.08909 7.73629 7.04438 6.78784 7.04438 5.61815Z" stroke="#0C0B0E" stroke-width="1.35417" stroke-linecap="round" stroke-linejoin="round"/>
<path fill-rule="evenodd" clip-rule="evenodd" d="M17.2221 14.3818C17.2221 13.2121 16.2676 12.2637 15.0895 12.2637C13.9106 12.2637 12.9553 13.2121 12.9553 14.3818C12.9553 15.5515 13.9106 16.5 15.0895 16.5C16.2676 16.5 17.2221 15.5515 17.2221 14.3818Z" stroke="#0C0B0E" stroke-width="1.35417" stroke-linecap="round" stroke-linejoin="round"/>
</svg>
