<svg width="20" height="20" viewBox="0 0 20 20" fill="none" xmlns="http://www.w3.org/2000/svg">
<path fill-rule="evenodd" clip-rule="evenodd" d="M15.8929 15.8915C13.3461 18.4386 9.57489 18.9889 6.48876 17.5616C6.03317 17.3782 5.65965 17.23 5.30456 17.23C4.31549 17.2358 3.08439 18.1948 2.44455 17.5558C1.80471 16.9159 2.76447 15.6838 2.76447 14.6888C2.76447 14.3336 2.62209 13.9668 2.43869 13.5103C1.01077 10.4246 1.56184 6.6522 4.10863 4.10596C7.35975 0.853653 12.6418 0.853653 15.8929 4.10513C19.1499 7.36246 19.144 12.64 15.8929 15.8915Z" stroke="#0C0B0E" stroke-width="1.25" stroke-linecap="round" stroke-linejoin="round"/>
<path d="M13.283 10.3442H13.2905" stroke="#0C0B0E" stroke-width="1.66667" stroke-linecap="round" stroke-linejoin="round"/>
<path d="M9.94221 10.3442H9.94971" stroke="#0C0B0E" stroke-width="1.66667" stroke-linecap="round" stroke-linejoin="round"/>
<path d="M6.60139 10.3442H6.60889" stroke="#0C0B0E" stroke-width="1.66667" stroke-linecap="round" stroke-linejoin="round"/>
</svg>
