<svg width="30" height="34" viewBox="0 0 30 34" fill="none" xmlns="http://www.w3.org/2000/svg">
<path fill-rule="evenodd" clip-rule="evenodd" d="M27.1032 9.07907L15.1694 2.26066L3.23466 9.07908L7.21654 11.3549L15.1695 6.81021L23.1241 11.3535L27.1032 9.07907ZM22.1618 19.8973V12.9994L16.1342 9.55672V16.4552L22.1618 19.8973ZM14.2046 16.4538V9.5566L8.17829 12.9995V19.8972L14.2046 16.4538ZM2.27609 24.372L14.2046 31.1877V26.6386L6.24827 22.0918V12.9969L2.27609 10.727V24.372ZM15.1681 18.0967L9.13225 21.5456L15.1694 24.9934L21.2052 21.5455L15.1681 18.0967ZM16.1342 31.1877L28.0627 24.372L28.0622 10.7271L24.0901 12.9969V22.0935L16.1342 26.6385V31.1877ZM0.347824 8.53466L15.1694 0.0651855L29.991 8.53466V25.4646L15.1694 33.934L0.347824 25.4645V8.53466Z" fill="#494BD9"/>
</svg>
