<svg width="20" height="20" viewBox="0 0 20 20" fill="none" xmlns="http://www.w3.org/2000/svg">
<path d="M13.4285 3.99997C15.4977 5.18025 16.8571 7.44739 16.8571 9.99997C16.8571 11.3562 16.4549 12.6819 15.7015 13.8096C14.948 14.9372 13.8771 15.8161 12.6241 16.3351C11.3711 16.8541 9.99236 16.9899 8.66221 16.7254C7.33205 16.4608 6.11022 15.8077 5.15124 14.8487C4.19225 13.8897 3.53917 12.6679 3.27458 11.3377C3.01 10.0076 3.14579 8.62883 3.66479 7.37585C4.1838 6.12287 5.06269 5.05193 6.19034 4.29846C7.318 3.54499 8.64375 3.14282 9.99997 3.14282" stroke="#0C0B0E" stroke-width="1.2" stroke-linecap="round" stroke-linejoin="round"/>
<path d="M13.4285 7.42857V4H16.857" stroke="#0C0B0E" stroke-width="1.2" stroke-linecap="round" stroke-linejoin="round"/>
</svg>
