<svg width="20" height="20" viewBox="0 0 20 20" fill="none" xmlns="http://www.w3.org/2000/svg">
<path fill-rule="evenodd" clip-rule="evenodd" d="M10.9202 3.4808L12.4431 6.52309C12.5923 6.82176 12.8804 7.02885 13.2145 7.07678L16.6211 7.56714C17.4628 7.68866 17.7977 8.70875 17.1886 9.29324L14.7252 11.6603C14.4831 11.8931 14.3729 12.2277 14.4301 12.5563L15.0115 15.8981C15.1547 16.7248 14.2748 17.3555 13.5225 16.9644L10.4777 15.3855C10.1792 15.2306 9.82168 15.2306 9.52232 15.3855L6.4775 16.9644C5.72519 17.3555 4.84533 16.7248 4.98937 15.8981L5.56987 12.5563C5.62714 12.2277 5.51694 11.8931 5.27485 11.6603L2.8114 9.29324C2.20226 8.70875 2.5372 7.68866 3.37889 7.56714L6.78554 7.07678C7.11961 7.02885 7.40856 6.82176 7.55781 6.52309L9.07979 3.4808C9.45638 2.72857 10.5436 2.72857 10.9202 3.4808Z" stroke="#0C0B0E" stroke-width="1.25" stroke-linecap="round" stroke-linejoin="round"/>
</svg>
