<svg width="20" height="20" viewBox="0 0 20 20" fill="none" xmlns="http://www.w3.org/2000/svg">
<path d="M14.9065 9.08056C16.069 8.91723 16.964 7.92056 16.9665 6.71306C16.9665 5.52306 16.099 4.5364 14.9615 4.34973" stroke="#0C0B0E" stroke-width="1.25" stroke-linecap="round" stroke-linejoin="round"/>
<path d="M16.4404 11.8752C17.5663 12.0436 18.3521 12.4377 18.3521 13.2502C18.3521 13.8094 17.9821 14.1727 17.3838 14.4011" stroke="#0C0B0E" stroke-width="1.25" stroke-linecap="round" stroke-linejoin="round"/>
<path fill-rule="evenodd" clip-rule="evenodd" d="M9.90553 12.2198C7.2272 12.2198 4.9397 12.6257 4.9397 14.2465C4.9397 15.8665 7.21303 16.284 9.90553 16.284C12.5839 16.284 14.8705 15.8823 14.8705 14.2607C14.8705 12.639 12.598 12.2198 9.90553 12.2198Z" stroke="#0C0B0E" stroke-width="1.25" stroke-linecap="round" stroke-linejoin="round"/>
<path fill-rule="evenodd" clip-rule="evenodd" d="M9.90567 9.9065C11.6632 9.9065 13.0882 8.48234 13.0882 6.724C13.0882 4.9665 11.6632 3.5415 9.90567 3.5415C8.14817 3.5415 6.72317 4.9665 6.72317 6.724C6.7165 8.47567 8.13067 9.90067 9.88233 9.9065H9.90567Z" stroke="#0C0B0E" stroke-width="1.25" stroke-linecap="round" stroke-linejoin="round"/>
<path d="M4.90399 9.08056C3.74066 8.91723 2.84649 7.92056 2.84399 6.71306C2.84399 5.52306 3.71149 4.5364 4.84899 4.34973" stroke="#0C0B0E" stroke-width="1.25" stroke-linecap="round" stroke-linejoin="round"/>
<path d="M3.36992 11.8752C2.24409 12.0436 1.45825 12.4377 1.45825 13.2502C1.45825 13.8094 1.82825 14.1727 2.42659 14.4011" stroke="#0C0B0E" stroke-width="1.25" stroke-linecap="round" stroke-linejoin="round"/>
</svg>
