<svg width="18" height="18" viewBox="0 0 18 18" fill="none" xmlns="http://www.w3.org/2000/svg">
<path fill-rule="evenodd" clip-rule="evenodd" d="M9.00008 3.60425C11.9797 3.60425 14.3959 6.01983 14.3959 9.00008C14.3959 11.9797 11.9797 14.3959 9.00008 14.3959C6.01983 14.3959 3.60425 11.9797 3.60425 9.00008C3.60425 6.01983 6.01983 3.60425 9.00008 3.60425Z" stroke="#494BD9" stroke-width="0.875" stroke-linecap="round" stroke-linejoin="round"/>
<path d="M9.39136 10.1743H8.43831C8.44097 9.93236 8.46091 9.725 8.49813 9.55221C8.538 9.37941 8.60314 9.22389 8.69352 9.08565C8.78391 8.94476 8.9062 8.8012 9.06038 8.65499C9.18267 8.54068 9.29167 8.43301 9.38737 8.33199C9.48573 8.22831 9.56283 8.12065 9.61865 8.00899C9.67448 7.89468 9.70239 7.76575 9.70239 7.62219C9.70239 7.46003 9.67581 7.32445 9.62264 7.21545C9.57213 7.10646 9.49637 7.02405 9.39535 6.96822C9.29698 6.90974 9.17337 6.88049 9.0245 6.88049C8.90221 6.88049 8.78657 6.90575 8.67757 6.95626C8.56858 7.00677 8.48085 7.08519 8.41439 7.19153C8.34793 7.29521 8.31204 7.43079 8.30672 7.59827H7.25C7.25798 7.25001 7.34039 6.96025 7.49723 6.72896C7.65408 6.49502 7.86542 6.3209 8.13127 6.20658C8.39711 6.08961 8.69485 6.03113 9.0245 6.03113C9.3887 6.03113 9.69973 6.09227 9.9576 6.21456C10.2181 6.33419 10.4162 6.50964 10.5518 6.74093C10.69 6.97221 10.7591 7.25134 10.7591 7.57833C10.7591 7.81227 10.7139 8.02228 10.6235 8.20837C10.5331 8.3918 10.4135 8.56327 10.2646 8.72278C10.1158 8.88228 9.95494 9.04312 9.78215 9.20528C9.63062 9.34086 9.52827 9.48574 9.4751 9.63993C9.42193 9.79412 9.39402 9.97224 9.39136 10.1743ZM8.33862 11.4144C8.33862 11.2549 8.39179 11.122 8.49813 11.0157C8.60712 10.9093 8.75334 10.8562 8.93677 10.8562C9.1202 10.8562 9.26508 10.9093 9.37142 11.0157C9.48042 11.122 9.53491 11.2549 9.53491 11.4144C9.53491 11.5686 9.48042 11.6989 9.37142 11.8052C9.26508 11.9116 9.1202 11.9647 8.93677 11.9647C8.75334 11.9647 8.60712 11.9116 8.49813 11.8052C8.39179 11.6989 8.33862 11.5686 8.33862 11.4144Z" fill="#494BD9"/>
</svg>
