<svg width="20" height="20" viewBox="0 0 20 20" fill="none" xmlns="http://www.w3.org/2000/svg">
<path fill-rule="evenodd" clip-rule="evenodd" d="M13.5857 2.2915H6.37567C3.86567 2.2915 2.2915 4.06984 2.2915 6.5865V13.3748C2.2915 15.8915 3.859 17.6698 6.37567 17.6698H13.5815C16.1023 17.6698 17.669 15.8915 17.669 13.3748V6.5865C17.6723 4.06984 16.1048 2.2915 13.5857 2.2915Z" stroke="#0C0B0E" stroke-width="1.25" stroke-linecap="round" stroke-linejoin="round"/>
<path fill-rule="evenodd" clip-rule="evenodd" d="M8.91944 7.3208C8.91944 8.1708 8.23111 8.85914 7.38111 8.85914C6.53194 8.85914 5.84277 8.1708 5.84277 7.3208C5.84277 6.4708 6.53194 5.78247 7.38111 5.78247C8.23027 5.7833 8.91861 6.47164 8.91944 7.3208Z" stroke="#0C0B0E" stroke-width="1.25" stroke-linecap="round" stroke-linejoin="round"/>
<path d="M17.6725 12.4591C16.9033 11.6674 15.4242 10.0682 13.8158 10.0682C12.2067 10.0682 11.2792 13.5957 9.73167 13.5957C8.18417 13.5957 6.77833 12.0007 5.53833 13.0232C4.29833 14.0449 3.125 16.1341 3.125 16.1341" stroke="#0C0B0E" stroke-width="1.25" stroke-linecap="round" stroke-linejoin="round"/>
</svg>
