<svg width="20" height="20" viewBox="0 0 20 20" fill="none" xmlns="http://www.w3.org/2000/svg">
<g clip-path="url(#clip0_278_6562)">
<path d="M17.4287 9.99998C17.4287 11.9702 16.646 13.8596 15.2529 15.2528C13.8598 16.6459 11.9703 17.4286 10.0001 17.4286C8.02993 17.4286 6.14044 16.6459 4.74731 15.2528C3.35418 13.8596 2.57153 11.9702 2.57153 9.99998M17.4287 9.99998C17.4287 8.0298 16.646 6.14032 15.2529 4.74719C13.8598 3.35406 11.9703 2.57141 10.0001 2.57141C8.02993 2.57141 6.14044 3.35406 4.74731 4.74719C3.35418 6.14032 2.57153 8.0298 2.57153 9.99998M17.4287 9.99998H2.57153" stroke="#0C0B0E" stroke-width="1.14286" stroke-linecap="round" stroke-linejoin="round"/>
<path d="M12.8574 9.99998C12.717 12.7165 11.7164 15.3181 10.0002 17.4286C8.284 15.3181 7.28341 12.7165 7.14307 9.99998C7.28341 7.28342 8.284 4.68187 10.0002 2.57141C11.7164 4.68187 12.717 7.28342 12.8574 9.99998Z" stroke="#0C0B0E" stroke-width="1.14286" stroke-linecap="round" stroke-linejoin="round"/>
</g>
<defs>
<clipPath id="clip0_278_6562">
<rect width="16" height="16" fill="white" transform="translate(2 2)"/>
</clipPath>
</defs>
</svg>
