<svg width="345" height="94" viewBox="0 0 345 94" fill="none" xmlns="http://www.w3.org/2000/svg">
<path d="M4 82.5364C31.5 70 34.9261 63.0934 101.382 82.5367C180.755 105.76 232.238 85.6197 266.493 64.3813C300.749 43.1428 320 43.5003 344.5 56" stroke="#494BD9" stroke-width="2.05533"/>
<path fill-rule="evenodd" clip-rule="evenodd" d="M195.934 90.5464C184.898 92.1477 172.845 92.9734 160.019 92.5727C156.402 90.5229 153.271 87.6773 150.627 84.0358C144.663 75.6172 141.682 63.7785 141.682 48.5197C141.682 32.9979 144.663 21.203 150.627 13.1352C156.678 4.97963 165.272 0.901855 176.409 0.901855C187.634 0.901855 196.228 4.97963 202.191 13.1352C208.154 21.203 211.136 32.954 211.136 48.3882C211.136 63.7346 208.154 75.6172 202.191 84.0358C200.355 86.6009 198.269 88.7711 195.934 90.5464ZM280.012 58.0596C271.719 61.8109 264.421 65.7291 258.454 69.4044L258.219 69.5493L257.988 69.7005C254.123 72.2267 248.591 75.1823 241.634 78.1165H220.555V63.91L263.438 2.3488H280.012V58.0596ZM122.265 87.8748C117.326 86.791 112.319 85.5038 107.256 83.9936C105.68 83.5237 104.106 83.0666 102.534 82.6222V78.1165H84.8436C77.4141 76.4277 70.0583 75.0062 62.8086 73.8238V63.91L105.691 2.3488H122.265V62.7262H134.893V78.1165H122.265V87.8748ZM102.534 31.3093V62.7262H80.8149L102.534 31.3093ZM187.721 72.4602C185.266 77.4588 181.495 79.9581 176.409 79.9581C171.41 79.9581 167.639 77.4588 165.096 72.4602C162.553 67.374 161.281 59.3061 161.281 48.2566C161.281 37.3826 162.509 29.534 164.965 24.7108C167.508 19.8876 171.322 17.476 176.409 17.476C181.495 17.476 185.266 19.8876 187.721 24.7108C190.264 29.534 191.536 37.4264 191.536 48.3882C191.536 59.3499 190.264 67.374 187.721 72.4602ZM260.281 31.3092V62.7262H238.561L260.281 31.3092Z" fill="#494BD9"/>
</svg>
